<?xml version="1.0" standalone="no"?><!DOCTYPE svg PUBLIC "-//W3C//DTD SVG 1.1//EN" "http://www.w3.org/Graphics/SVG/1.1/DTD/svg11.dtd"><svg t="1621430815813" class="icon" viewBox="0 0 1024 1024" version="1.1" xmlns="http://www.w3.org/2000/svg" p-id="6462" xmlns:xlink="http://www.w3.org/1999/xlink" width="15" height="15"><defs><style type="text/css"></style></defs><path d="M0 512c0-281.6 230.4-512 512-512s512 230.4 512 512-230.4 512-512 512-512-230.4-512-512z m953.6 0c0-243.2-198.4-441.6-441.6-441.6-243.2 0-441.6 198.4-441.6 441.6 0 243.2 198.4 441.6 441.6 441.6 243.2 0 441.6-198.4 441.6-441.6z m0 0" fill="#EFAE2F" p-id="6463"></path><path d="M787.2 403.2c-12.8-12.8-25.6-12.8-38.4 0L512 640 275.2 403.2c-12.8-12.8-25.6-12.8-38.4 0-12.8 12.8-12.8 25.6 0 38.4L512 710.4l275.2-275.2c6.4-6.4 6.4-25.6 0-32z" fill="#EFAE2F" p-id="6464"></path></svg>