<?xml version="1.0" standalone="no"?><!DOCTYPE svg PUBLIC "-//W3C//DTD SVG 1.1//EN" "http://www.w3.org/Graphics/SVG/1.1/DTD/svg11.dtd"><svg t="1621331971797" class="icon" viewBox="0 0 1024 1024" version="1.1" xmlns="http://www.w3.org/2000/svg" p-id="5400" xmlns:xlink="http://www.w3.org/1999/xlink" width="20" height="20"><defs><style type="text/css"></style></defs><path d="M76.831508 914.510769L259.497354 731.766154l33.413908 33.413908L110.276923 947.908923z" fill="#94C1FF" p-id="5401"></path><path d="M76.563692 914.337477l181.578831-181.578831 11.137969 11.137969L87.701662 925.475446z" fill="#D7E9FF" p-id="5402"></path><path d="M98.540308 936.613415l181.641846-181.531569 11.153723 11.153723L109.678277 947.751385z" fill="#5C9EFF" p-id="5403"></path><path d="M253.983508 724.519385l66.859323-66.827816 44.551877 44.551877-66.859323 66.827816z" fill="#D7E9FF" p-id="5404"></path><path d="M253.085538 725.6064l66.827816-66.843569 22.291692 22.275938-66.843569 66.843569z" fill="#FFFFFF" p-id="5405"></path><path d="M297.747692 726.252308c12.603077 12.603077 12.603077 31.507692 0 44.110769-12.603077 12.603077-31.507692 12.603077-44.110769 0-12.603077-12.603077-12.603077-31.507692 0-44.110769 12.603077-12.603077 33.083077-12.603077 44.110769 0z" fill="#94C1FF" p-id="5406"></path><path d="M277.267692 756.184615c-4.726154 0-7.876923-3.150769-7.876923-7.876923s3.150769-7.876923 7.876923-7.876923 7.876923 3.150769 7.876923 7.876923-4.726154 7.876923-7.876923 7.876923z" fill="#116FFF" p-id="5407"></path><path d="M75.618462 948.381538c6.301538 6.301538 6.301538 15.753846 0 22.055385-6.301538 6.301538-15.753846 6.301538-22.055385 0-6.301538-6.301538-6.301538-15.753846 0-22.055385 6.301538-6.301538 15.753846-6.301538 22.055385 0z" fill="#94C1FF" p-id="5408"></path><path d="M53.563077 970.436923c6.301538 6.301538 15.753846 6.301538 22.055385 0 6.301538-6.301538 6.301538-15.753846 0-22.055385-6.301538-6.301538-15.753846-6.301538-22.055385 0-6.301538 6.301538-6.301538 15.753846 0 22.055385zM31.507692 926.326154c18.904615-18.904615 48.836923-18.904615 66.166154 0 18.904615 18.904615 18.904615 48.836923 0 67.741538-18.904615 18.904615-48.836923 18.904615-66.166154 0-18.904615-20.48-18.904615-50.412308 0-67.741538zM321.378462 658.510769L908.996923 69.316923 1009.821538 14.178462l-55.138461 100.824615-589.193846 587.618461-11.027693-11.027692h-22.055384v-22.055384z" fill="#D7E9FF" p-id="5409"></path><path d="M218.978462 645.907692l-11.027693 11.027693-42.535384-64.59077-45.686154 44.11077 64.590769 42.535384-9.452308 11.027693 70.892308 48.836923 20.48-20.48zM431.655385 858.584615l-64.59077-42.535384 11.027693-11.027693-72.467693-47.261538-20.48 20.48 48.836923 70.892308 11.027693-9.452308 42.535384 64.590769z" fill="#94C1FF" p-id="5410"></path><path d="M1005.095385 15.753846l-96.098462 53.563077-587.618461 589.193846 11.027692 11.027693v20.48z" fill="#FFFFFF" p-id="5411"></path><path d="M908.996923 77.193846c-3.150769 0-4.726154-1.575385-6.301538-4.726154-1.575385-3.150769 0-7.876923 3.150769-11.027692L1006.670769 6.301538c3.150769-1.575385 7.876923 0 11.027693 3.15077 1.575385 3.150769 0 7.876923-3.15077 11.027692L913.723077 77.193846h-4.726154z" fill="#116FFF" p-id="5412"></path><path d="M954.683077 122.88c-1.575385 0-3.150769 0-3.150769-1.575385-4.726154-1.575385-6.301538-6.301538-4.726154-11.027692L1001.944615 9.452308c1.575385-3.150769 6.301538-4.726154 11.027693-3.15077 3.150769 1.575385 4.726154 6.301538 3.150769 11.027693L960.984615 118.153846c-1.575385 3.150769-4.726154 4.726154-6.301538 4.726154z" fill="#116FFF" p-id="5413"></path><path d="M321.378462 756.184615c-1.575385 0-4.726154 0-6.301539-1.575384-3.150769-3.150769-3.150769-7.876923 0-11.027693L948.381538 108.701538c3.150769-3.150769 7.876923-3.150769 11.027693 0s3.150769 7.876923 0 11.027693L326.104615 753.033846c-1.575385 1.575385-3.150769 3.150769-4.726153 3.150769zM275.692308 710.498462c-1.575385 0-4.726154 0-6.301539-1.575385-3.150769-3.150769-3.150769-7.876923 0-11.027692L904.270769 64.590769c3.150769-3.150769 7.876923-3.150769 11.027693 0s3.150769 7.876923 0 11.027693L281.993846 708.923077c-1.575385 1.575385-3.150769 1.575385-6.301538 1.575385zM332.406154 699.470769c-1.575385 0-4.726154 0-6.301539-1.575384-3.150769-3.150769-3.150769-7.876923 0-11.027693l567.138462-567.138461c3.150769-3.150769 7.876923-3.150769 11.027692 0s3.150769 7.876923 0 11.027692l-567.138461 567.138462c-1.575385 1.575385-3.150769 1.575385-4.726154 1.575384z" fill="#116FFF" p-id="5414"></path><path d="M332.406154 699.470769c-4.726154 0-7.876923-3.150769-7.876923-7.876923v-22.055384c0-4.726154 3.150769-7.876923 7.876923-7.876924s7.876923 3.150769 7.876923 7.876924v22.055384c0 4.726154-3.150769 7.876923-7.876923 7.876923z" fill="#116FFF" p-id="5415"></path><path d="M354.461538 699.470769h-22.055384c-4.726154 0-7.876923-3.150769-7.876923-7.876923s3.150769-7.876923 7.876923-7.876923h22.055384c4.726154 0 7.876923 3.150769 7.876924 7.876923s-3.150769 7.876923-7.876924 7.876923zM275.692308 787.692308c-9.452308 0-20.48-3.150769-28.356923-11.027693-7.876923-7.876923-11.027692-17.329231-11.027693-28.356923s4.726154-20.48 11.027693-28.356923c7.876923-7.876923 17.329231-11.027692 28.356923-11.027692s20.48 4.726154 28.356923 11.027692c7.876923 7.876923 11.027692 17.329231 11.027692 28.356923s-4.726154 20.48-11.027692 28.356923c-7.876923 6.301538-17.329231 11.027692-28.356923 11.027693z m0-63.015385c-6.301538 0-12.603077 3.150769-17.329231 6.301539-4.726154 4.726154-6.301538 11.027692-6.301539 17.32923 0 6.301538 3.150769 12.603077 6.301539 17.329231 9.452308 9.452308 23.630769 9.452308 33.083077 0 4.726154-4.726154 6.301538-11.027692 6.301538-17.329231 0-6.301538-3.150769-12.603077-6.301538-17.32923-3.150769-4.726154-9.452308-6.301538-15.753846-6.301539zM64.590769 1014.547692c-14.178462 0-28.356923-4.726154-39.384615-15.753846s-15.753846-23.630769-15.753846-39.384615c0-14.178462 6.301538-28.356923 15.753846-39.384616C47.261538 897.969231 81.92 897.969231 102.4 920.024615c22.055385 22.055385 22.055385 56.713846 0 78.769231-9.452308 11.027692-23.630769 15.753846-37.809231 15.753846z m0-94.523077c-9.452308 0-20.48 3.150769-28.356923 11.027693-7.876923 7.876923-11.027692 17.329231-11.027692 28.356923s4.726154 20.48 11.027692 28.356923c15.753846 15.753846 40.96 15.753846 55.138462 0 15.753846-15.753846 15.753846-40.96 0-55.138462-6.301538-9.452308-17.329231-12.603077-26.781539-12.603077z" fill="#116FFF" p-id="5416"></path><path d="M64.590769 983.04c-6.301538 0-12.603077-1.575385-17.329231-6.301538-4.726154-4.726154-6.301538-11.027692-6.301538-17.329231 0-6.301538 3.150769-12.603077 6.301538-17.329231 9.452308-9.452308 25.206154-9.452308 33.083077 0 4.726154 4.726154 6.301538 11.027692 6.301539 17.329231 0 6.301538-3.150769 12.603077-6.301539 17.329231-3.150769 3.150769-9.452308 6.301538-15.753846 6.301538z m0-31.507692c-1.575385 0-4.726154 0-6.301538 1.575384-1.575385 1.575385-3.150769 3.150769-3.150769 6.301539 0 1.575385 1.575385 4.726154 1.575384 6.301538 3.150769 3.150769 7.876923 3.150769 11.027692 0 1.575385-1.575385 3.150769-3.150769 3.15077-6.301538 0-1.575385-1.575385-4.726154-1.575385-6.301539 0-1.575385-3.150769-1.575385-4.726154-1.575384zM231.581538 734.129231c-1.575385 0-3.150769 0-4.726153-1.575385l-55.138462-33.083077c-3.150769-1.575385-4.726154-6.301538-3.150769-11.027692 1.575385-3.150769 6.301538-4.726154 11.027692-3.150769l55.138462 33.083077c3.150769 1.575385 4.726154 6.301538 3.150769 11.027692-1.575385 3.150769-3.150769 4.726154-6.301539 4.726154zM253.636923 710.498462c-3.150769 0-4.726154-1.575385-6.301538-3.15077l-33.083077-55.138461c-1.575385-3.150769-1.575385-7.876923 3.150769-11.027693 3.150769-1.575385 7.876923-1.575385 11.027692 3.15077l33.083077 55.138461c1.575385 3.150769 1.575385 7.876923-3.150769 11.027693h-4.726154zM119.729231 644.332308c-1.575385 0-4.726154 0-6.301539-1.575385-3.150769-3.150769-3.150769-7.876923 0-11.027692l44.11077-44.110769c3.150769-3.150769 7.876923-3.150769 11.027692 0s3.150769 7.876923 0 11.027692L126.030769 641.181538c-1.575385 1.575385-3.150769 3.150769-6.301538 3.15077z" fill="#116FFF" p-id="5417"></path><path d="M187.470769 688.443077c-1.575385 0-3.150769 0-4.726154-1.575385l-66.166153-44.110769c-3.150769-3.150769-4.726154-7.876923-1.575385-11.027692 3.150769-3.150769 7.876923-4.726154 11.027692-1.575385l66.166154 44.110769c3.150769 3.150769 4.726154 7.876923 1.575385 11.027693-1.575385 1.575385-4.726154 3.150769-6.301539 3.150769zM209.526154 666.387692c-3.150769 0-4.726154-1.575385-6.301539-3.150769L157.538462 595.495385c-3.150769-3.150769-1.575385-7.876923 1.575384-11.027693 3.150769-3.150769 7.876923-1.575385 11.027692 1.575385l44.11077 66.166154c3.150769 3.150769 1.575385 7.876923-1.575385 11.027692 0 3.150769-1.575385 3.150769-3.150769 3.150769zM376.516923 811.323077c-1.575385 0-3.150769 0-4.726154-1.575385l-55.138461-33.083077c-3.150769-1.575385-4.726154-6.301538-3.15077-11.027692 1.575385-3.150769 6.301538-4.726154 11.027693-3.150769l55.138461 33.083077c3.150769 1.575385 4.726154 6.301538 3.15077 11.027692-1.575385 3.150769-3.150769 4.726154-6.301539 4.726154zM332.406154 855.433846c-3.150769 0-4.726154-1.575385-6.301539-3.150769l-33.083077-55.138462c-1.575385-3.150769-1.575385-7.876923 3.15077-11.027692 3.150769-1.575385 7.876923-1.575385 11.027692 3.150769l33.083077 55.138462c1.575385 3.150769 1.575385 7.876923-3.150769 11.027692h-4.726154zM387.544615 912.147692c-1.575385 0-4.726154 0-6.301538-1.575384-3.150769-3.150769-3.150769-7.876923 0-11.027693l44.110769-44.110769c3.150769-3.150769 7.876923-3.150769 11.027692 0s3.150769 7.876923 0 11.027692L393.846154 908.996923c-1.575385 1.575385-4.726154 3.150769-6.301539 3.150769z" fill="#116FFF" p-id="5418"></path><path d="M431.655385 866.461538c-1.575385 0-3.150769 0-4.726154-1.575384l-66.166154-44.110769c-3.150769-3.150769-4.726154-7.876923-1.575385-11.027693 3.150769-3.150769 7.876923-4.726154 11.027693-1.575384l66.166153 44.110769c3.150769 3.150769 4.726154 7.876923 1.575385 11.027692 0 1.575385-3.150769 3.150769-6.301538 3.150769zM387.544615 912.147692c-3.150769 0-4.726154-1.575385-6.301538-3.150769l-44.110769-66.166154c-3.150769-3.150769-1.575385-7.876923 1.575384-11.027692 3.150769-3.150769 7.876923-1.575385 11.027693 1.575385l44.110769 66.166153c3.150769 3.150769 1.575385 7.876923-1.575385 11.027693-1.575385 0-3.150769 1.575385-4.726154 1.575384zM92.947692 905.846154c-1.575385 0-4.726154 0-6.301538-1.575385-3.150769-3.150769-3.150769-7.876923 0-11.027692l33.083077-33.083077c3.150769-3.150769 7.876923-3.150769 11.027692 0s3.150769 7.876923 0 11.027692l-33.083077 33.083077c-1.575385 1.575385-3.150769 1.575385-4.726154 1.575385zM126.030769 938.929231c-1.575385 0-4.726154 0-6.301538-1.575385-3.150769-3.150769-3.150769-7.876923 0-11.027692L141.784615 904.270769c3.150769-3.150769 7.876923-3.150769 11.027693 0s3.150769 7.876923 0 11.027693l-22.055385 22.055384c-1.575385 1.575385-3.150769 1.575385-4.726154 1.575385z" fill="#116FFF" p-id="5419"></path><path d="M148.086154 916.873846c-3.150769 0-6.301538-1.575385-6.301539-4.726154l-22.055384-44.110769c-1.575385-3.150769 0-7.876923 3.150769-11.027692 3.150769-1.575385 7.876923 0 11.027692 3.150769l22.055385 44.110769c1.575385 3.150769 0 7.876923-3.150769 11.027693-1.575385 1.575385-3.150769 1.575385-4.726154 1.575384z" fill="#116FFF" p-id="5420"></path><path d="M137.058462 861.735385c-1.575385 0-4.726154 0-6.301539-1.575385-3.150769-3.150769-3.150769-7.876923 0-11.027692l22.055385-22.055385c3.150769-3.150769 7.876923-3.150769 11.027692 0s3.150769 7.876923 0 11.027692L141.784615 860.16s-3.150769 1.575385-4.726153 1.575385zM159.113846 905.846154c-1.575385 0-4.726154 0-6.301538-1.575385-3.150769-3.150769-3.150769-7.876923 0-11.027692l22.055384-22.055385c3.150769-3.150769 7.876923-3.150769 11.027693 0s3.150769 7.876923 0 11.027693l-22.055385 22.055384c0 1.575385-3.150769 1.575385-4.726154 1.575385z" fill="#116FFF" p-id="5421"></path><path d="M181.169231 883.790769c-3.150769 0-6.301538-1.575385-6.301539-4.726154L152.812308 834.953846c-1.575385-3.150769 0-7.876923 3.150769-11.027692 3.150769-1.575385 7.876923 0 11.027692 3.150769l22.055385 44.110769c1.575385 3.150769 0 7.876923-3.150769 11.027693-1.575385 1.575385-3.150769 1.575385-4.726154 1.575384z" fill="#116FFF" p-id="5422"></path><path d="M170.141538 828.652308c-1.575385 0-4.726154 0-6.301538-1.575385-3.150769-3.150769-3.150769-7.876923 0-11.027692l22.055385-22.055385c3.150769-3.150769 7.876923-3.150769 11.027692 0s3.150769 7.876923 0 11.027692l-22.055385 22.055385s-3.150769 1.575385-4.726154 1.575385zM192.196923 872.763077c-1.575385 0-4.726154 0-6.301538-1.575385-3.150769-3.150769-3.150769-7.876923 0-11.027692l22.055384-22.055385c3.150769-3.150769 7.876923-3.150769 11.027693 0s3.150769 7.876923 0 11.027693l-22.055385 22.055384s-1.575385 1.575385-4.726154 1.575385z" fill="#116FFF" p-id="5423"></path><path d="M214.252308 850.707692c-3.150769 0-6.301538-1.575385-6.301539-4.726154l-22.055384-44.110769c-1.575385-3.150769 0-7.876923 3.150769-11.027692 3.150769-1.575385 7.876923 0 11.027692 3.150769l22.055385 44.110769c1.575385 3.150769 0 7.876923-3.150769 11.027693-1.575385 1.575385-3.150769 1.575385-4.726154 1.575384z" fill="#116FFF" p-id="5424"></path><path d="M203.224615 793.993846c-1.575385 0-4.726154 0-6.301538-1.575384-3.150769-3.150769-3.150769-7.876923 0-11.027693l22.055385-22.055384c3.150769-3.150769 7.876923-3.150769 11.027692 0s3.150769 7.876923 0 11.027692l-22.055385 22.055385c0 1.575385-1.575385 1.575385-4.726154 1.575384zM225.28 839.68c-1.575385 0-4.726154 0-6.301538-1.575385-3.150769-3.150769-3.150769-7.876923 0-11.027692l33.083076-33.083077c3.150769-3.150769 7.876923-3.150769 11.027693 0s3.150769 7.876923 0 11.027692l-33.083077 33.083077s-1.575385 1.575385-4.726154 1.575385z" fill="#116FFF" p-id="5425"></path></svg>